<svg width="200" height="200" viewBox="0 0 200 200" fill="none" xmlns="http://www.w3.org/2000/svg">
<circle cx="100" cy="100" r="100" fill="#8FBDD7"/>
<rect x="43.5" y="20.5" width="37" height="17" rx="3.5" fill="#4E7D87" stroke="black"/>
<rect x="43.5" y="38.5" width="37" height="17" rx="3.5" fill="#4E7D87" stroke="black"/>
<rect x="81.5" y="38.5" width="36" height="17" rx="3.5" stroke="black"/>
<rect x="118.5" y="38.5" width="37" height="17" rx="3.5" stroke="black"/>
<rect x="43.5" y="56.5" width="37" height="17" rx="3.5" fill="#4E7D87" stroke="black"/>
<rect x="43.5" y="74.5" width="37" height="18" rx="3.5" fill="#4E7D87" stroke="black"/>
<rect x="43.5" y="93.5" width="37" height="15" rx="3.5" stroke="black"/>
<rect x="43.5" y="109.5" width="37" height="18" rx="3.5" stroke="black"/>
<rect x="43.5" y="128.5" width="37" height="17" rx="3.5" stroke="black"/>
<rect x="43.5" y="146.5" width="37" height="17" rx="3.5" stroke="black"/>
<rect x="43.5" y="164.5" width="37" height="17" rx="3.5" fill="#4E7D87" stroke="black"/>
<rect x="81.5" y="56.5" width="36" height="17" rx="3.5" stroke="black"/>
<rect x="81.5" y="74.5" width="36" height="18" rx="3.5" stroke="black"/>
<rect x="81.5" y="93.5" width="36" height="15" rx="3.5" fill="#4E7D87" stroke="black"/>
<rect x="81.5" y="109.5" width="36" height="18" rx="3.5" stroke="black"/>
<rect x="81.5" y="128.5" width="36" height="17" rx="3.5" stroke="black"/>
<rect x="81.5" y="146.5" width="36" height="17" rx="3.5" stroke="black"/>
<rect x="81.5" y="164.5" width="36" height="17" rx="3.5" fill="#4E7D87" stroke="black"/>
<rect x="118.5" y="56.5" width="37" height="17" rx="3.5" stroke="black"/>
<rect x="118.5" y="74.5" width="37" height="18" rx="3.5" stroke="black"/>
<rect x="118.5" y="93.5" width="37" height="15" rx="3.5" stroke="black"/>
<rect x="118.5" y="109.5" width="37" height="18" rx="3.5" fill="#4E7D87" stroke="black"/>
<rect x="118.5" y="128.5" width="37" height="17" rx="3.5" fill="#4E7D87" stroke="black"/>
<rect x="118.5" y="146.5" width="37" height="17" rx="3.5" fill="#4E7D87" stroke="black"/>
<rect x="118.5" y="164.5" width="37" height="17" rx="3.5" fill="#4E7D87" stroke="black"/>
<rect x="81.5" y="20.5" width="36" height="17" rx="3.5" fill="#4E7D87" stroke="black"/>
<rect x="118.5" y="20.5" width="37" height="17" rx="3.5" fill="#4E7D87" stroke="black"/>
</svg>
